<svg xmlns="http://www.w3.org/2000/svg" xmlns:se="http://svg-edit.googlecode.com" xmlns:xlink="http://www.w3.org/1999/xlink" xmlns:dc="http://purl.org/dc/elements/1.1/" xmlns:cc="http://creativecommons.org/ns#" xmlns:rdf="http://www.w3.org/1999/02/22-rdf-syntax-ns#" xmlns:inkscape="http://www.inkscape.org/namespaces/inkscape" width="105.22579193115234" height="94.38709259033203" style="">                                    <title>my vector image</title>                                    <!-- Created with Vector Paint - http://www.vectorpaint.yaks.com/ https://chrome.google.com/webstore/detail/hnbpdiengicdefcjecjbnjnoifekhgdo -->                                    <rect id="backgroundrect" width="100%" height="100%" x="0" y="0" fill="none" stroke="none" class="" style=""/>                                <g class="currentLayer" style=""><title>Layer 1</title><line fill="#4a90d6" fill-opacity="1" stroke="#222222" stroke-opacity="1" stroke-width="2" stroke-dasharray="none" stroke-linejoin="round" stroke-linecap="butt" stroke-dashoffset="" fill-rule="nonzero" opacity="1" marker-start="" marker-mid="" marker-end="" id="svg_1" x1="480.9525451660156" y1="104.90721130371094" x2="480.9525451660156" y2="105.42266845703125" style="color: rgb(0, 0, 0);" class=""/><path fill="#b804b8" stroke-width="2" stroke-linejoin="round" stroke-dashoffset="" fill-rule="nonzero" marker-start="" marker-mid="" marker-end="" id="svg_4" d="M49.32020987317253,92.31945221845342 C48.51691958434187,89.88149824223936 33.98736234953722,92.92937941638483 41.5905991144801,89.77174801892201 C44.5360099735267,89.09064016969177 50.58398011836331,89.94467160065163 44.57090625297216,88.10310334446707 C51.418263055587964,90.41324068067331 54.45293916724056,82.31779180323076 54.89498598380694,76.86005188567104 C48.52162636929737,74.87425537290781 47.41786862797977,67.45730485219893 40.70157138868324,65.4598580616706 C35.58428386496191,61.44819523324805 28.08225964579628,61.57087168826886 24.83422645718386,55.38553797965762 C21.750491280446823,49.877844920025794 23.49208051402036,43.17368288160619 24.002568166302744,37.224143036191684 C25.217773361829533,30.943252197596625 27.68485303245648,24.586146599646607 27.19697188950035,18.203861369107482 C22.22327313000394,21.067368714541974 20.404835706260574,14.665959328774322 20.291409159600466,12.666457676558911 C16.630366956520568,13.602674482689782 14.311185804275963,13.644165716458108 18.292362122802707,10.387500896452503 C20.071448036009603,7.92034242581979 20.954426345984544,2.5315009901631793 23.796581920644954,3.3403891101676058 C24.546418528688974,0.07837195131372955 26.536485395606896,4.8234991712122754 28.73679977002913,1.9413222859669468 C30.08508908286746,2.959324405701408 32.936630950513916,4.094153595418602 29.775799060512103,5.8890661866924985 C35.483183457654505,8.768885133305885 40.10453708399139,13.150289711530041 42.48210904045642,18.749327131610354 C44.86467873574426,24.4397755890671 49.61143954037632,30.58930984893701 57.27677980211562,29.049654722266776 C64.2173570114693,30.24131083916838 72.34904782999314,26.076494138137452 72.03305677638423,19.088194433026693 C72.1675956630318,14.13696579823122 77.04087290757752,2.5737620393715677 83.60876245922452,8.450796787237678 C88.53087146114592,10.33836606213179 94.19456731666878,15.013831046225956 93.03337043273811,20.319771845121316 C92.36088209182334,25.790553163623667 92.88046205245524,31.30863570092947 93.5187845293622,36.823981453422135 C89.39638950832048,39.87975475121497 90.13650037719992,45.18778678103071 87.25753610757148,49.18461096222691 C89.6459036648168,54.81233158438041 87.34571634471416,60.89208237766784 83.43621772367612,65.46241300031681 C79.52557347178578,69.6749855355687 73.80974232018701,73.41623099059954 67.47464616998158,72.86903768951017 C65.0543403642738,76.89813047303869 70.33244657654197,80.44313966773173 72.19458163421314,80.66888349943302 C67.34215911425161,79.11346231008488 68.0256097482665,82.09599403335312 69.62548323313534,85.28304814063483 C71.12442906455534,91.24987549499119 66.41881701674377,79.96735432564986 63.37935835089925,85.36565176198992 C61.02264111901845,87.69624073044378 51.60017893027512,88.48515001823502 59.22860138934617,85.69172315478907 C65.73883964451838,83.27657874945437 51.91808543017647,81.76644634799509 54.985890882685126,87.20888391060255 C56.001186525300945,89.47954547472484 61.8880470277233,90.47936297776032 55.69149644137828,89.61418740753366 C52.95546022823444,88.17604184204663 51.49198652245511,93.28262165730166 49.32020684240307,92.31944918768403 L49.32020987317253,92.31945221845342 zM62.38006214020907,81.82459772142901 C64.76212569699887,78.92545761957282 65.44762816193116,70.53784862870523 60.29588988187384,76.65297759378072 C56.223890495243985,79.9531491092386 54.75166998883267,85.63317778132665 62.38006214020907,81.82459772142901 z" style="color: rgb(0, 0, 0);" class=""/></g></svg>